<?xml version="1.0" encoding="UTF-8" standalone="no"?>
<!DOCTYPE svg PUBLIC "-//W3C//DTD SVG 1.1//EN" "http://www.w3.org/Graphics/SVG/1.1/DTD/svg11.dtd">
<svg width="100%" height="100%" viewBox="0 0 570 66" version="1.1" xmlns="http://www.w3.org/2000/svg" xmlns:xlink="http://www.w3.org/1999/xlink" xml:space="preserve" xmlns:serif="http://www.serif.com/" style="fill-rule:evenodd;clip-rule:evenodd;stroke-linejoin:round;stroke-miterlimit:1.41421;">
    <g transform="matrix(1,0,0,1,-115.124,-349.29)">
        <g transform="matrix(0.0331055,0,0,0.0331055,73.5331,308.744)">
            <path d="M3573.64,1401.88C3337.83,1166.07 2954.13,1166.07 2718.33,1401.88L2605.9,1514.3L2493.49,1401.88C2379.25,1287.65 2227.38,1224.74 2065.83,1224.74C2065.82,1224.74 2065.84,1224.74 2065.83,1224.74C1904.29,1224.74 1752.39,1287.66 1638.17,1401.88C1422.82,1617.23 1401.31,1960.6 1588.15,2200.58C1591.22,2204.53 1594.68,2208.01 1598.38,2211.08C1610.65,2227.84 1630.41,2238.77 1652.77,2238.77C1690.01,2238.77 1720.2,2208.58 1720.2,2171.33C1720.2,2171.33 1622.81,2051.86 1600.73,1896.27C1580.55,1754.04 1625.75,1605.02 1733.54,1497.24C1822.29,1408.48 1940.3,1359.6 2065.83,1359.6C2191.35,1359.61 2309.36,1408.48 2398.12,1497.24L2558.22,1657.35C2584.56,1683.68 2627.26,1683.68 2653.58,1657.35L2813.69,1497.24C2996.91,1314.02 3295.04,1314.01 3478.28,1497.25C3567.04,1586.01 3615.92,1704.02 3615.92,1829.54C3615.92,1955.06 3567.04,2073.07 3478.27,2161.83L2605.91,3034.21L2138.97,2566.17C2112.63,2539.83 2073.09,2540.39 2046.75,2566.74C2020.42,2593.07 2025.2,2641.22 2051.53,2667.55L2558.22,3177.25C2571.39,3190.42 2588.65,3197 2605.91,3197C2623.16,3197 2640.42,3190.42 2653.59,3177.25L3573.64,2257.2C3687.87,2142.96 3750.78,1991.08 3750.78,1829.54C3750.78,1667.99 3687.87,1516.11 3573.64,1401.88Z" style="fill:rgb(239,76,146);fill-rule:nonzero;"/>
        </g>
        <g transform="matrix(0.00913121,0,0,0.0067592,68.2821,314.127)">
            <ellipse cx="8100.22" cy="7012.09" rx="1707.16" ry="1384.54" style="fill:rgb(239,76,146);"/>
        </g>
        <g transform="matrix(0.00227532,0,0,0.0061208,108.474,325.145)">
            <ellipse cx="8100.22" cy="7012.09" rx="1707.16" ry="1384.54" style="fill:rgb(239,76,146);"/>
        </g>
        <g transform="matrix(0.00794531,0,0,0.00700961,88.6943,324.272)">
            <ellipse cx="8100.22" cy="7012.09" rx="1707.16" ry="1384.54" style="fill:rgb(239,76,146);"/>
        </g>
        <g transform="matrix(0.00965848,0,0,0.0135184,100.057,276.089)">
            <ellipse cx="8100.22" cy="7012.09" rx="1707.16" ry="1384.54" style="fill:rgb(239,76,146);"/>
        </g>
        <g transform="matrix(0.00979908,0,0,0.0149261,86.1845,274.6)">
            <ellipse cx="8100.22" cy="7012.09" rx="1707.16" ry="1384.54" style="fill:rgb(239,76,146);"/>
        </g>
        <g transform="matrix(0.00716849,0,0,0.00916346,101.689,332.793)">
            <ellipse cx="8100.22" cy="7012.09" rx="1707.16" ry="1384.54" style="fill:rgb(239,76,146);"/>
        </g>
        <g transform="matrix(0.00677891,0,0,0.00484643,101.386,362.324)">
            <ellipse cx="8100.22" cy="7012.09" rx="1707.16" ry="1384.54" style="fill:rgb(239,76,146);"/>
        </g>
        <g transform="matrix(0.0331055,0,0,0.0331055,73.7684,309.003)">
            <path d="M1585.05,1924.1C1584.03,2129.19 1585.28,2123.15 1585.05,2168.92C1584.84,2211.14 1626.57,2238.77 1648.93,2238.77C1686.17,2238.77 1720.2,2208.58 1720.2,2171.33L1720.77,1971.86C1720.77,1932.29 1752.4,1902.65 1791.97,1902.65L1927.91,1902.65L1927.91,2171.33C1927.91,2208.58 1958.1,2238.77 1995.35,2238.77L2192.25,2238.77C2231.83,2238.77 2264.03,2270.96 2264.03,2310.54L2264.03,2446.48L1995.35,2446.48C1958.1,2446.48 1927.91,2476.67 1927.91,2513.91L1927.91,2710.82C1927.91,2750.4 1895.72,2782.6 1856.14,2782.6L1720.2,2782.6L1720.2,2513.91C1720.2,2476.67 1690.01,2446.48 1652.77,2446.48L1455.86,2446.48C1416.28,2446.48 1384.08,2414.28 1384.08,2374.71L1384.08,2171.33C1384.08,2134.09 1353.89,2103.9 1316.65,2103.9C1279.41,2103.9 1249.22,2134.09 1249.22,2171.33L1249.22,2374.71C1249.22,2488.65 1341.92,2581.34 1455.86,2581.34L1585.33,2581.34L1585.33,2850.03C1585.33,2887.27 1615.52,2917.46 1652.77,2917.46L1856.14,2917.46C1970.08,2917.46 2062.78,2824.76 2062.78,2710.82L2062.78,2581.34L2331.46,2581.34C2368.7,2581.34 2398.89,2551.16 2398.89,2513.91L2398.89,2310.54C2398.89,2196.6 2306.19,2103.9 2192.25,2103.9L2062.78,2103.9L2062.78,1835.22C2062.78,1797.98 2032.59,1767.79 1995.35,1767.79L1806.08,1767.79C1691.83,1768.66 1585.73,1786.78 1585.05,1924.1Z" style="fill:url(#_Linear1);fill-rule:nonzero;"/>
        </g>
        <g transform="matrix(1.08861,0,0,1.08861,-17.7849,151.502)">
            <path d="M227.483,197.771L226.091,197.771C225.131,197.771 224.363,197.963 224.171,198.539L212.795,230.075C212.699,230.363 212.651,230.555 212.651,230.747C212.651,231.275 213.275,231.563 214.715,231.563L214.955,231.563C215.915,231.563 216.683,231.371 216.875,230.795L219.611,222.923L233.723,222.923L236.555,230.795C236.747,231.371 237.515,231.563 238.475,231.563L238.859,231.563C240.299,231.563 240.923,231.227 240.923,230.747C240.923,230.555 240.875,230.363 240.779,230.123L229.403,198.539C229.211,197.963 228.443,197.771 227.483,197.771ZM226.811,202.187C226.955,203.099 227.099,204.107 227.387,204.971L232.427,219.275L220.955,219.275L225.995,204.971C226.331,204.059 226.523,203.099 226.715,202.187L226.811,202.187Z" style="fill:rgb(82,162,217);fill-rule:nonzero;"/>
        </g>
        <g transform="matrix(1.08861,0,0,1.08861,-17.7849,151.502)">
            <path d="M268.763,197.867L259.019,197.867C258.011,197.867 257.579,198.299 257.579,199.307L257.579,230.507C257.579,231.179 258.155,231.563 259.499,231.563L259.883,231.563C261.227,231.563 261.803,231.179 261.803,230.507L261.803,217.163L269.243,217.163C271.739,217.163 279.467,216.059 279.467,207.275C279.467,199.163 272.891,197.867 268.763,197.867ZM268.619,201.515C271.451,201.515 275.099,202.523 275.099,207.275C275.099,212.507 271.211,213.515 269.291,213.515L261.803,213.515L261.803,201.515L268.619,201.515Z" style="fill:rgb(82,162,217);fill-rule:nonzero;"/>
        </g>
        <g transform="matrix(1.08861,0,0,1.08861,-17.7849,151.502)">
            <path d="M317.291,197.867L294.779,197.867C294.107,197.867 293.819,198.299 293.819,199.307L293.819,200.075C293.819,201.083 294.107,201.515 294.779,201.515L303.995,201.515L303.995,230.507C303.995,231.179 304.571,231.563 305.915,231.563L306.299,231.563C307.643,231.563 308.219,231.179 308.219,230.507L308.219,201.515L317.291,201.515C317.963,201.515 318.251,201.083 318.251,200.075L318.251,199.307C318.251,198.299 317.963,197.867 317.291,197.867Z" style="fill:rgb(82,162,217);fill-rule:nonzero;"/>
        </g>
        <g transform="matrix(1.08861,0,0,1.08861,-17.7849,151.502)">
            <path d="M354.059,197.867L337.307,197.867C336.299,197.867 335.867,198.299 335.867,199.307L335.867,230.027C335.867,231.035 336.299,231.467 337.307,231.467L354.107,231.467C354.779,231.467 355.067,231.035 355.067,230.027L355.067,229.259C355.067,228.251 354.779,227.819 354.107,227.819L340.091,227.819L340.091,216.107L352.619,216.107C353.291,216.107 353.579,215.675 353.579,214.667L353.579,213.899C353.579,212.891 353.291,212.459 352.619,212.459L340.091,212.459L340.091,201.515L354.059,201.515C354.731,201.515 355.019,201.083 355.019,200.075L355.019,199.307C355.019,198.299 354.731,197.867 354.059,197.867Z" style="fill:rgb(82,162,217);fill-rule:nonzero;"/>
        </g>
        <g transform="matrix(1.08861,0,0,1.08861,-17.7849,151.502)">
            <path d="M393.371,197.771L392.891,197.771C391.835,197.771 390.731,197.915 390.299,198.443L378.491,213.515L378.299,213.515L378.299,198.827C378.299,198.155 377.723,197.771 376.379,197.771L375.995,197.771C374.651,197.771 374.075,198.155 374.075,198.827L374.075,230.507C374.075,231.179 374.651,231.563 375.995,231.563L376.379,231.563C377.723,231.563 378.299,231.179 378.299,230.507L378.299,215.483L378.491,215.483L392.219,230.939C392.795,231.563 393.803,231.563 394.859,231.563L395.435,231.563C396.923,231.563 397.547,231.419 397.547,230.891C397.547,230.699 397.451,230.507 397.115,230.123L382.571,214.331L394.571,199.355C394.907,198.971 395.051,198.635 395.051,198.395C395.051,198.059 394.523,197.771 393.371,197.771Z" style="fill:rgb(82,162,217);fill-rule:nonzero;"/>
        </g>
        <g transform="matrix(1.08861,0,0,1.08861,-17.7849,151.502)">
            <path d="M424.475,197.771L423.083,197.771C422.123,197.771 421.355,197.963 421.163,198.539L409.787,230.075C409.691,230.363 409.643,230.555 409.643,230.747C409.643,231.275 410.267,231.563 411.707,231.563L411.947,231.563C412.907,231.563 413.675,231.371 413.867,230.795L416.603,222.923L430.715,222.923L433.547,230.795C433.739,231.371 434.507,231.563 435.467,231.563L435.851,231.563C437.291,231.563 437.915,231.227 437.915,230.747C437.915,230.555 437.867,230.363 437.771,230.123L426.395,198.539C426.203,197.963 425.435,197.771 424.475,197.771ZM423.803,202.187C423.947,203.099 424.091,204.107 424.379,204.971L429.419,219.275L417.947,219.275L422.987,204.971C423.323,204.059 423.515,203.099 423.707,202.187L423.803,202.187Z" style="fill:rgb(82,162,217);fill-rule:nonzero;"/>
        </g>
        <g transform="matrix(1.08861,0,0,1.08861,-17.7849,151.502)">
            <path d="M479.483,197.771L477.803,197.771C475.787,197.771 474.923,198.299 474.923,199.307L474.923,211.163L461.963,211.163L461.963,199.307C461.963,198.299 461.099,197.771 459.083,197.771L457.403,197.771C455.387,197.771 454.523,198.299 454.523,199.307L454.523,230.027C454.523,231.035 455.387,231.563 457.403,231.563L459.083,231.563C461.099,231.563 461.963,231.035 461.963,230.027L461.963,217.499L474.923,217.499L474.923,230.027C474.923,231.035 475.787,231.563 477.803,231.563L479.483,231.563C481.499,231.563 482.363,231.035 482.363,230.027L482.363,199.307C482.363,198.299 481.499,197.771 479.483,197.771Z" style="fill:rgb(239,80,148);fill-rule:nonzero;"/>
        </g>
        <g transform="matrix(1.08861,0,0,1.08861,-17.7849,151.502)">
            <path d="M505.259,197.723L503.579,197.723C501.563,197.723 500.699,198.299 500.699,199.307L500.699,230.027C500.699,231.035 501.563,231.611 503.579,231.611L505.259,231.611C507.275,231.611 508.139,231.035 508.139,230.027L508.139,199.307C508.139,198.299 507.275,197.723 505.259,197.723Z" style="fill:rgb(239,80,148);fill-rule:nonzero;"/>
        </g>
        <g transform="matrix(1.08861,0,0,1.08861,-17.7849,151.502)">
            <path d="M547.739,197.867L525.035,197.867C524.027,197.867 523.595,198.587 523.595,200.267L523.595,201.755C523.595,203.435 524.027,204.155 525.035,204.155L532.667,204.155L532.667,230.027C532.667,231.035 533.531,231.563 535.547,231.563L537.227,231.563C539.243,231.563 540.107,231.035 540.107,230.027L540.107,204.155L547.739,204.155C548.747,204.155 549.179,203.435 549.179,201.755L549.179,200.267C549.179,198.587 548.747,197.867 547.739,197.867Z" style="fill:rgb(239,80,148);fill-rule:nonzero;"/>
        </g>
        <g transform="matrix(1.08861,0,0,1.08861,-17.7849,151.502)">
            <path d="M566.747,226.283L565.931,226.283C564.587,226.283 564.011,226.667 564.011,227.339L564.011,230.507C564.011,231.179 564.587,231.563 565.931,231.563L566.747,231.563C568.091,231.563 568.667,231.179 568.667,230.507L568.667,227.339C568.667,226.667 568.091,226.283 566.747,226.283Z" style="fill:rgb(82,162,217);fill-rule:nonzero;"/>
        </g>
        <g transform="matrix(1.08861,0,0,1.08861,-17.7849,151.502)">
            <path d="M598.331,197.867L588.587,197.867C587.579,197.867 587.147,198.299 587.147,199.307L587.147,230.507C587.147,231.179 587.723,231.563 589.067,231.563L589.451,231.563C590.795,231.563 591.371,231.179 591.371,230.507L591.371,217.163L598.811,217.163C601.307,217.163 609.035,216.059 609.035,207.275C609.035,199.163 602.459,197.867 598.331,197.867ZM598.187,201.515C601.019,201.515 604.667,202.523 604.667,207.275C604.667,212.507 600.779,213.515 598.859,213.515L591.371,213.515L591.371,201.515L598.187,201.515Z" style="fill:rgb(82,162,217);fill-rule:nonzero;"/>
        </g>
        <g transform="matrix(1.08861,0,0,1.08861,-17.7849,151.502)">
            <path d="M629.387,197.771L629.003,197.771C627.659,197.771 627.083,198.155 627.083,198.827L627.083,230.027C627.083,231.035 627.515,231.467 628.523,231.467L644.507,231.467C645.179,231.467 645.467,231.035 645.467,230.027L645.467,229.259C645.467,228.251 645.179,227.819 644.507,227.819L631.307,227.819L631.307,198.827C631.307,198.155 630.731,197.771 629.387,197.771Z" style="fill:rgb(82,162,217);fill-rule:nonzero;"/>
        </g>
    </g>
    <defs>
        <linearGradient id="_Linear1" x1="0" y1="0" x2="1" y2="0" gradientUnits="userSpaceOnUse" gradientTransform="matrix(1149.67,0,0,1149.67,1249.22,2342.62)"><stop offset="0" style="stop-color:rgb(213,64,131);stop-opacity:1"/><stop offset="0.5" style="stop-color:rgb(79,163,224);stop-opacity:1"/><stop offset="1" style="stop-color:rgb(79,163,224);stop-opacity:1"/></linearGradient>
    </defs>
</svg>
